<?xml version="1.0" encoding="UTF-8" standalone="no"?>
<svg
   xmlns:dc="http://purl.org/dc/elements/1.1/"
   xmlns:cc="http://creativecommons.org/ns#"
   xmlns:rdf="http://www.w3.org/1999/02/22-rdf-syntax-ns#"
   xmlns:svg="http://www.w3.org/2000/svg"
   xmlns="http://www.w3.org/2000/svg"
   xmlns:sodipodi="http://sodipodi.sourceforge.net/DTD/sodipodi-0.dtd"
   xmlns:inkscape="http://www.inkscape.org/namespaces/inkscape"
   width="40.107449mm"
   height="40.107449mm"
   viewBox="0 0 40.107449 40.107449"
   version="1.1"
   id="svg8"
   inkscape:version="1.0.2 (e86c870879, 2021-01-15)"
   sodipodi:docname="icon.svg"
   inkscape:export-filename="/home/saibotd/Projects/coinstats/static/icon.png"
   inkscape:export-xdpi="1085"
   inkscape:export-ydpi="1085">
  <defs
     id="defs2" />
  <sodipodi:namedview
     id="base"
     pagecolor="#ffffff"
     bordercolor="#666666"
     borderopacity="1.0"
     inkscape:pageopacity="0.0"
     inkscape:pageshadow="2"
     inkscape:zoom="0.98994949"
     inkscape:cx="-132.13001"
     inkscape:cy="207.25943"
     inkscape:document-units="mm"
     inkscape:current-layer="text835"
     inkscape:document-rotation="0"
     showgrid="false"
     inkscape:window-width="1506"
     inkscape:window-height="1024"
     inkscape:window-x="1970"
     inkscape:window-y="28"
     inkscape:window-maximized="0"
     fit-margin-top="0"
     fit-margin-left="0"
     fit-margin-right="0"
     fit-margin-bottom="0"
     lock-margins="true" />
  <metadata
     id="metadata5">
    <rdf:RDF>
      <cc:Work
         rdf:about="">
        <dc:format>image/svg+xml</dc:format>
        <dc:type
           rdf:resource="http://purl.org/dc/dcmitype/StillImage" />
        <dc:title></dc:title>
      </cc:Work>
    </rdf:RDF>
  </metadata>
  <g
     inkscape:label="Layer 1"
     inkscape:groupmode="layer"
     id="layer1"
     transform="translate(-9.812294,-10.601144)">
    <g
       aria-label="w"
       id="text835"
       style="font-style:normal;font-weight:normal;font-size:55.9187px;line-height:1.25;font-family:sans-serif;opacity:1;fill:#000000;fill-opacity:1;stroke:none;stroke-width:1.39797">
      <rect
         style="fill:#ff1493;fill-opacity:1;stroke-width:0.0214962"
         id="rect880"
         width="40.107449"
         height="40.107449"
         x="9.812294"
         y="10.601144" />
      <g
         id="g987"
         transform="translate(-110.41146,-84.972514)">
        <path
           d="m 148.23673,108.7998 q -1.17683,4.91861 -3.07789,11.11967 -0.42246,1.37298 -1.40315,2.82141 -0.52808,0.79965 -1.43335,0.78455 -1.64456,-0.0301 -2.56491,-4.08877 -0.30176,-1.29755 -0.61859,-3.53053 l -0.4979,-3.36458 -1.23721,2.88176 -2.29333,6.23125 q -0.19612,0.57333 -0.57333,0.87508 -0.45262,0.8751 -1.44841,0.90527 -1.14669,0.0453 -2.21791,-4.49615 -0.54317,-2.33859 -1.08633,-6.33685 l -0.36211,-2.26316 q -0.19614,-1.3579 -0.19614,-2.27825 0,-0.63368 0.43754,-1.04106 0.45264,-0.42245 1.08633,-0.42245 1.14666,0 1.41825,1.25228 0.19614,0.89018 0.31684,2.20282 l 0.22632,2.21789 0.89018,6.7744 q 1.67474,-4.64703 3.47018,-10.7123 0.49789,-1.67473 1.7351,-1.67473 1.19192,0 1.61438,1.87087 0.39228,1.76526 0.9807,5.43158 0.60351,3.80212 1.07123,5.92949 l 1.10141,-4.10387 1.94632,-8.22281 q 0.22631,-0.92036 1.29755,-0.92036 0.63368,0 1.10139,0.43754 0.46772,0.42246 0.46772,1.02597 0,0.0754 -0.15088,0.69404 z"
           style="font-style:normal;font-variant:normal;font-weight:normal;font-stretch:normal;font-size:55.9187px;line-height:1.25;font-family:'Comic Sans MS';-inkscape-font-specification:'Comic Sans MS';fill:#adff2f;fill-opacity:1;stroke:none;stroke-width:0.772494"
           id="path837-0-0" />
        <path
           d="m 149.16699,109.91878 q -1.17684,4.91861 -3.0779,11.11967 -0.42246,1.37298 -1.40315,2.82141 -0.52808,0.79965 -1.43334,0.78455 -1.64457,-0.0301 -2.56491,-4.08876 -0.30177,-1.29756 -0.6186,-3.53054 l -0.4979,-3.36457 -1.2372,2.88176 -2.29334,6.23124 q -0.19613,0.57334 -0.57334,0.87509 -0.45263,0.87509 -1.44842,0.90527 -1.14669,0.0453 -2.21792,-4.49616 -0.54317,-2.33859 -1.08633,-6.33684 l -0.36211,-2.26316 q -0.19614,-1.3579 -0.19614,-2.27826 0,-0.63368 0.43754,-1.04105 0.45264,-0.42246 1.08632,-0.42246 1.14669,0 1.41827,1.25229 0.19614,0.89018 0.31683,2.20281 l 0.22633,2.2179 0.89018,6.7744 q 1.67476,-4.64703 3.47021,-10.71231 0.49789,-1.67474 1.73509,-1.67474 1.19193,0 1.61439,1.87088 0.39227,1.76526 0.98069,5.43159 0.60351,3.80211 1.07123,5.92948 l 1.10142,-4.10386 1.94631,-8.22282 q 0.22632,-0.92036 1.29755,-0.92036 0.63368,0 1.10139,0.43754 0.46772,0.42246 0.46772,1.02597 0,0.0754 -0.15087,0.69404 z"
           style="font-style:normal;font-variant:normal;font-weight:normal;font-stretch:normal;font-family:'Comic Sans MS';-inkscape-font-specification:'Comic Sans MS';fill:#8a2be2;fill-opacity:1;stroke-width:0.772494"
           id="path837" />
        <path
           d="m 150.38006,111.13186 q -1.17683,4.91861 -3.07789,11.11967 -0.42246,1.37298 -1.40315,2.82141 -0.52808,0.79965 -1.43335,0.78455 -1.64456,-0.0301 -2.56491,-4.08877 -0.30176,-1.29755 -0.61859,-3.53053 l -0.4979,-3.36458 -1.23721,2.88176 -2.29333,6.23125 q -0.19612,0.57333 -0.57333,0.87508 -0.45262,0.8751 -1.44841,0.90527 -1.14669,0.0453 -2.21791,-4.49615 -0.54317,-2.33859 -1.08633,-6.33685 l -0.36211,-2.26316 q -0.19614,-1.3579 -0.19614,-2.27825 0,-0.63368 0.43754,-1.04106 0.45264,-0.42245 1.08633,-0.42245 1.14666,0 1.41825,1.25228 0.19614,0.89018 0.31684,2.20282 l 0.22632,2.21789 0.89018,6.7744 q 1.67474,-4.64703 3.47018,-10.7123 0.49789,-1.67473 1.7351,-1.67473 1.19192,0 1.61438,1.87087 0.39228,1.76526 0.9807,5.43158 0.60351,3.80212 1.07123,5.92949 l 1.10141,-4.10387 1.94632,-8.22281 q 0.22631,-0.92036 1.29755,-0.92036 0.63368,0 1.10139,0.43754 0.46772,0.42246 0.46772,1.02597 0,0.0754 -0.15088,0.69404 z"
           style="font-style:normal;font-variant:normal;font-weight:normal;font-stretch:normal;font-size:55.9187px;line-height:1.25;font-family:'Comic Sans MS';-inkscape-font-specification:'Comic Sans MS';fill:#00ffff;fill-opacity:1;stroke:none;stroke-width:0.772494"
           id="path837-0" />
      </g>
    </g>
  </g>
</svg>
